<?xml version="1.0" encoding="UTF-8"?> <svg xmlns="http://www.w3.org/2000/svg" xmlns:xlink="http://www.w3.org/1999/xlink" width="194px" height="52px" viewBox="0 0 194 52" version="1.1"><title>Sagility-Horiz-Logo-RGB_Sagility-Horiz-Logo-Blue-RGB</title><g id="Page-1" stroke="none" stroke-width="1" fill="none" fill-rule="evenodd"><g id="Sagility-Horiz-Logo-RGB_Sagility-Horiz-Logo-Blue-RGB" transform="translate(0.408396, 0.720000)" fill="#55AAFF" fill-rule="nonzero"><path d="M61.3978712,24.9524541 C57.1625124,24.1127375 56.0163299,23.0983353 56.0163299,21.069531 C56.0163299,18.9089464 57.6038233,17.8945443 60.2516887,17.8945443 C63.25199,17.8945443 65.2348244,19.4391324 65.7650104,22.041028 L68.7653116,22.041028 L68.7653116,15.3784592 L65.6761353,15.3784592 L65.6761353,17.8056691 C64.8394833,16.1722059 63.2489253,14.9831181 59.8992529,14.9831181 C55.8845496,14.9831181 52.6206877,17.2754831 52.6206877,21.1584061 C52.6206877,24.9953593 54.649492,27.1559439 60.6470298,28.216316 C64.2204222,28.8782823 66.0714763,29.7149342 66.0714763,32.1421442 C66.0714763,34.6551646 64.4839829,35.9361921 61.3519013,35.9361921 C57.867384,35.9361921 55.6638941,33.4660769 55.1766133,30.7753063 L52.1763121,30.7753063 L52.1763121,38.4492126 L55.2654884,38.4492126 L55.2654884,35.6266616 C55.8385797,37.0394694 57.6896338,38.8476182 61.2630262,38.8476182 C66.7763479,38.8476182 69.5559936,36.0250672 69.5559936,31.9214888 C69.5559936,27.0670688 66.1174462,25.8779811 61.3978712,24.9524541 Z" id="logoMark__x3C_PathItem_x3E__00000091698804171193276090000006465955654162657966_"></path><path d="M91.9157461,18.3787604 L95.1367028,18.3787604 L95.1367028,15.3784592 L88.2565432,15.3784592 L88.2565432,18.9947569 C86.8897053,16.7452971 84.5942756,14.9800535 81.0208832,14.9800535 C75.198031,14.9800535 70.478456,19.9631891 70.478456,27.0210989 L70.478456,27.3735347 C70.478456,34.6061301 75.1551257,38.8414889 80.6684474,38.8414889 C83.7116538,38.8414889 86.9755157,36.8126846 88.2565432,34.5632249 L88.2565432,38.4461479 L95.2255779,38.4461479 L95.2255779,35.577627 L91.9188108,35.577627 L91.9188108,18.3787604 L91.9157461,18.3787604 Z M88.3852589,27.0670688 C88.3852589,32.9757315 84.9896167,35.8013471 81.0637884,35.8013471 C77.4015208,35.8013471 74.2694393,33.0217014 74.2694393,27.2019138 L74.2694393,26.849478 C74.2694393,21.204376 77.1379602,18.0293892 81.3702543,18.0293892 C85.5596433,18.0293892 88.3821942,20.7630651 88.3821942,26.7176977 L88.3821942,27.0670688 L88.3852589,27.0670688 Z" id="logoMark__x3C_CompoundPathItem_x3E__00000160895860906316307450000013271704950136057012_"></path><path d="M125.292948,10.615979 C126.659786,10.615979 127.805968,9.51270172 127.805968,8.10295855 C127.805968,6.69015073 126.659786,5.63284335 125.292948,5.63284335 C123.92611,5.63284335 122.779921,6.69015073 122.779921,8.10295855 C122.776863,9.51270172 123.92611,10.615979 125.292948,10.615979 Z" id="logoMark__x3C_PathItem_x3E__00000057854523938166253460000009803932290934733463_"></path><path d="M145.620832,10.615979 C146.987669,10.615979 148.133852,9.51270172 148.133852,8.10295855 C148.133852,6.69015073 146.987669,5.63284335 145.620832,5.63284335 C144.253994,5.63284335 143.107805,6.69015073 143.107805,8.10295855 C143.104746,9.51270172 144.253994,10.615979 145.620832,10.615979 Z" id="logoMark__x3C_PathItem_x3E__00000060748290263916273960000000960175594701771430_"></path><path d="M147.649636,15.3784592 L140.680601,15.3784592 L140.680601,18.3787604 L143.990433,18.3787604 L143.990433,35.5806917 L137.554649,35.5806917 L137.554649,4.35181587 L130.539644,4.35181587 L130.539644,7.35211708 L133.849476,7.35211708 L133.849476,35.5806917 L127.324817,35.5806917 L127.324817,15.3784592 L113.791283,15.3784592 L113.791283,19.083632 C112.424445,16.8341722 110.13208,14.9831181 106.249157,14.9831181 C99.899183,14.9831181 95.4860739,20.1869092 95.4860739,26.4510723 L95.4860739,26.7606029 C95.4860739,33.1105765 99.9420882,37.6983711 105.982531,37.6983711 C109.289298,37.6983711 112.510255,35.5806917 113.788218,33.3312319 L113.788218,36.6839689 C113.788218,41.6241994 110.922762,43.784784 106.377872,43.784784 C102.452044,43.784784 100.248554,42.4608513 99.7183681,39.7700806 L95.9702901,39.7700806 C96.5433813,43.649939 99.5865878,46.8708957 106.423842,46.8708957 C112.819786,46.8708957 117.450485,43.6070338 117.450485,36.9015597 L117.450485,18.3787604 L123.662549,18.3787604 L123.662549,35.5806917 L120.441593,35.5806917 L120.441593,38.4492126 L150.956403,38.4492126 L150.956403,35.5806917 L147.649636,35.5806917 L147.649636,15.3784592 Z M113.919998,26.4939776 C113.919998,31.6548634 110.656136,34.6551646 106.377872,34.6551646 C102.494949,34.6551646 99.2770572,31.6548634 99.2770572,26.6257579 L99.2770572,26.2733221 C99.2770572,21.4648721 102.010733,18.0263246 106.598528,18.0263246 C111.140352,18.0263246 113.919998,21.0266258 113.919998,26.1875117 L113.919998,26.4939776 L113.919998,26.4939776 Z" id="logoMark__x3C_CompoundPathItem_x3E__00000011711978943089211780000006668575933286539453_"></path><path d="M175.887404,15.3784592 L175.887404,18.3787604 L179.371922,18.3787604 L174.122161,31.9214888 L168.345278,18.3787604 L171.698015,18.3787604 L171.698015,15.3784592 L157.263471,15.3784592 L157.263471,10.1317629 L153.601204,10.1317629 L153.601204,15.3784592 L150.294437,15.3784592 L150.294437,18.4645708 L153.601204,18.4645708 L153.601204,32.6662009 C153.601204,36.3284685 155.630008,38.7526138 160.260708,38.7526138 C161.627546,38.7526138 162.553073,38.5319584 163.567475,38.2224278 L163.567475,35.1363161 C162.510168,35.4887519 161.495765,35.6665021 160.567174,35.6665021 C158.274809,35.6665021 157.260407,34.5632249 157.260407,32.3137651 L157.260407,18.4676355 L164.496067,18.4676355 L172.179167,36.0679725 L169.00418,43.6100984 L165.476758,43.6100984 L165.476758,46.4755546 L176.104995,46.4755546 L176.104995,43.6100984 L172.531603,43.6100984 L182.939185,18.3787604 L185.761736,18.3787604 L185.761736,15.3784592 L175.887404,15.3784592 Z" id="logoMark__x3C_PathItem_x3E__00000134954880456896578280000006200421963585502114_"></path><path d="M40.7665864,35.0688936 L22.7984904,24.6950227 L22.7984904,16.0710721 L30.8616084,20.7170952 C34.0764357,22.5681493 38.1830788,21.4648721 40.0341329,18.2500447 C41.885187,15.038282 40.7819097,10.9285742 37.5670824,9.07752014 L21.8147348,0 L21.8147348,14.0085566 L8.59073096,6.36836153 C5.8478611,4.79006211 2.3449558,5.73091244 0.766656384,8.4737823 C-0.814707691,11.2166522 0.129207299,14.7195575 2.87207716,16.2978569 L20.8371086,26.6717278 L20.8371086,35.1455101 L12.7862492,30.5086809 C9.57142186,28.6576269 5.46477872,29.7609041 3.61372465,32.9757315 C1.76267058,36.1874942 2.86594784,40.297202 6.08077519,42.1482561 L21.8361874,51.2257762 L21.8361874,37.3643233 L35.044868,44.998389 C37.7877378,46.5766884 41.2906431,45.6358381 42.8689425,42.8929682 C44.4503066,40.1500983 43.5094563,36.647193 40.7665864,35.0688936 Z" id="logoMark__x3C_PathItem_x3E__00000177446367437952268390000004985315680184107707_"></path><path d="M187.646501,15.0934459 C187.646501,13.4722412 188.924464,12.1666965 190.573251,12.1666965 C192.222037,12.1666965 193.5,13.447724 193.5,15.0811872 C193.5,16.7299738 192.194455,17.995678 190.573251,17.995678 C188.952046,17.995678 187.646501,16.7269091 187.646501,15.0934459 Z M192.972879,15.0781226 C192.972879,13.6407975 191.982994,12.638654 190.573251,12.638654 C189.163507,12.638654 188.173623,13.6530561 188.173623,15.0903812 C188.173623,16.5277063 189.227865,17.5175912 190.573251,17.5175912 C191.930895,17.5175912 192.972879,16.5154477 192.972879,15.0781226 Z M190.705031,16.4756071 L189.307546,16.4756071 L189.307546,15.9883263 L189.690629,15.9883263 L189.690629,14.0759791 L189.307546,14.0759791 L189.307546,13.5886983 L190.705031,13.5886983 C191.376191,13.5886983 191.811373,13.8645176 191.811373,14.4468028 L191.811373,14.4590614 C191.811373,14.8819844 191.575394,15.1179631 191.216829,15.2252262 L191.676528,15.9883263 L192.071869,15.9883263 L192.071869,16.4756071 L191.321027,16.4756071 L190.622285,15.3294246 L190.318884,15.3294246 L190.318884,15.9883263 L190.701966,15.9883263 L190.701966,16.4756071 L190.705031,16.4756071 Z M190.692772,14.894243 C191.023755,14.894243 191.192312,14.7624627 191.192312,14.4866434 L191.192312,14.4743847 C191.192312,14.1709835 191.008432,14.0790437 190.692772,14.0790437 L190.325013,14.0790437 L190.325013,14.8973077 L190.692772,14.8973077 L190.692772,14.894243 Z" id="Shape"></path></g></g></svg> 